<?xml version="1.0" encoding="UTF-8" standalone="no"?><!DOCTYPE svg PUBLIC "-//W3C//DTD SVG 1.1//EN" "http://www.w3.org/Graphics/SVG/1.1/DTD/svg11.dtd"><svg width="100%" height="100%" viewBox="0 0 160 160" version="1.1" xmlns="http://www.w3.org/2000/svg" xmlns:xlink="http://www.w3.org/1999/xlink" xml:space="preserve" xmlns:serif="http://www.serif.com/" style="fill-rule:evenodd;clip-rule:evenodd;stroke-linejoin:round;stroke-miterlimit:2;"><rect id="Artboard1" x="0" y="0" width="160" height="160" style="fill:none;"/><path d="M152,38.109c0,-4.627 -3.751,-8.378 -8.378,-8.378l-88.704,0c-4.627,0 -8.378,3.751 -8.378,8.378c0,4.627 3.751,8.378 8.378,8.378l68.401,0c0,0 -33.237,33.299 -35.905,35.967c-3.272,3.272 -3.272,8.577 0,11.849c3.272,3.271 8.577,3.271 11.848,0c3.272,-3.272 47.754,-47.816 47.754,-47.816l1.848,-1.848c1.796,-1.796 3.136,-3.888 3.136,-6.53" style="fill-rule:nonzero;"/><path d="M105.082,113.513l-68.401,0c0,0 33.237,-33.299 35.905,-35.967c3.272,-3.272 3.272,-8.577 0,-11.849c-3.272,-3.271 -8.577,-3.271 -11.848,0c-3.272,3.272 -47.754,47.816 -47.754,47.816l-1.848,1.848c-1.935,1.935 -3.136,3.888 -3.136,6.53c0,4.627 3.751,8.378 8.378,8.378l88.704,0c4.627,0 8.378,-3.751 8.378,-8.378c0,-4.627 -3.751,-8.378 -8.378,-8.378" style="fill-rule:nonzero;"/></svg>